<?xml version="1.0" standalone="no"?>
<!DOCTYPE svg PUBLIC "-//W3C//DTD SVG 20010904//EN"
 "http://www.w3.org/TR/2001/REC-SVG-20010904/DTD/svg10.dtd">
<svg version="1.0" xmlns="http://www.w3.org/2000/svg"
 width="1050.000000pt" height="1050.000000pt" viewBox="0 0 1050.000000 1050.000000"
 preserveAspectRatio="xMidYMid meet">
<metadata>
Created by potrace 1.11, written by Peter Selinger 2001-2013
</metadata>
<g transform="translate(0.000000,1050.000000) scale(0.100000,-0.100000)"
fill="#000000" stroke="none">
<path d="M1790 8289 c-256 -19 -526 -80 -732 -164 -238 -98 -395 -201 -568
-375 -216 -216 -328 -423 -387 -715 -24 -122 -25 -431 -1 -560 67 -356 226
-625 537 -908 48 -42 120 -102 162 -132 179 -129 544 -322 971 -514 270 -120
553 -260 692 -340 323 -186 525 -417 597 -687 29 -105 31 -348 5 -469 -38
-173 -109 -313 -219 -431 -165 -177 -360 -274 -647 -323 -303 -52 -693 -30
-986 54 -136 40 -292 110 -393 176 -77 51 -91 64 -96 92 -3 17 -32 244 -65
502 -34 259 -63 480 -66 493 l-4 22 -255 0 c-197 0 -255 -3 -255 -12 0 -7 -14
-308 -30 -668 -16 -360 -30 -680 -30 -711 l0 -56 66 -12 c37 -6 143 -37 238
-67 443 -142 834 -234 1131 -265 197 -21 620 -16 805 9 336 46 610 137 856
283 318 190 532 416 687 725 219 438 218 972 -5 1341 -98 162 -287 378 -434
495 -168 133 -444 291 -914 520 -769 376 -937 466 -1103 589 -116 86 -269 242
-320 326 -95 156 -138 366 -118 574 13 133 36 219 86 324 114 234 315 372 645
442 145 30 429 42 600 24 205 -21 438 -83 570 -152 100 -52 85 -6 172 -541 43
-266 80 -489 83 -495 3 -10 61 -13 244 -13 l239 0 6 93 c3 50 13 297 21 547 8
250 18 512 21 581 l6 127 -43 7 c-24 4 -95 23 -158 42 -238 71 -651 166 -861
198 -208 31 -524 41 -750 24z"/>
<path d="M4690 8032 l0 -198 183 -28 c100 -15 242 -37 315 -48 l132 -21 0
-2488 c0 -1369 -3 -2489 -7 -2489 -14 0 -597 -71 -620 -76 -23 -4 -23 -5 -23
-199 l0 -195 1100 0 1100 0 0 195 0 194 -32 6 c-18 3 -172 21 -342 41 -170 19
-313 37 -318 40 -4 3 -8 527 -8 1165 l0 1159 1410 0 1410 0 0 -1165 c0 -798
-3 -1165 -10 -1165 -16 0 -580 -69 -618 -75 l-32 -6 2 -192 3 -192 1075 0
1075 0 3 192 2 192 -32 6 c-18 3 -159 21 -312 40 -154 20 -283 38 -288 41 -4
3 -8 1121 -8 2485 0 2061 2 2480 13 2485 8 3 151 26 318 52 l304 47 3 198 2
197 -1075 0 -1075 0 0 -195 c0 -147 3 -197 13 -200 10 -4 617 -95 632 -95 3 0
5 -484 5 -1075 l0 -1075 -1410 0 -1410 0 0 1069 c0 609 4 1072 9 1075 7 5 447
69 629 92 l52 7 0 198 0 199 -1085 0 -1085 0 0 -198z"/>
</g>
</svg>
